inDegrees=yes
name=ik_lifting_orientations
DataType=double
version=3
OpenSimVersion=4.5-2024-01-10-34fd6af
endheader
time	pelvis_tilt	pelvis_list	pelvis_rotation	pelvis_tx	pelvis_ty	pelvis_tz	hip_flexion_r	hip_adduction_r	hip_rotation_r	knee_angle_r	knee_angle_r_beta	ankle_angle_r	subtalar_angle_r	mtp_angle_r	hip_flexion_l	hip_adduction_l	hip_rotation_l	knee_angle_l	knee_angle_l_beta	ankle_angle_l	subtalar_angle_l	mtp_angle_l	lumbar_extension	lumbar_bending	lumbar_rotation	arm_flex_r	arm_add_r	arm_rot_r	elbow_flex_r	pro_sup_r	wrist_flex_r	wrist_dev_r	arm_flex_l	arm_add_l	arm_rot_l	elbow_flex_l	pro_sup_l	wrist_flex_l	wrist_dev_l
2.18	6.176211296869045	-1.605080288864148	-113.1366860120094	0	0.9399999998679526	0	45.13575622096562	-10.06035407249448	0	60.01263740047377	1.047418115443758	-5.015804377503359	0	0	45.13575622096562	-10.06035407249448	0	60.01263740047377	1.047418115443758	-5.015804377503359	0	0	8.356388327661138	-4.063699827043725	17.05241880831381	73.14557770109937	11.7177422307975	30.76938517242373	24.18239460126446	0.9553232124801456	0	0	0	-12.98109830561982	0	89.06784464697974	0.9553232124801456	0	0
2.19	6.177979492343908	-1.519577692767823	-113.0744112573121	0	0.9399999998679526	0	45.13572125740277	-10.0602996859543	0	60.01263487709579	1.047418071402504	-5.015785794856323	0	0	45.13572125740277	-10.0602996859543	0	60.01263487709579	1.047418071402504	-5.015785794856323	0	0	8.62517928043974	-3.983806530770103	17.33689974199363	73.73004297669627	12.18883640596339	30.28404182198288	23.51226363386957	0.955152074051582	0	0	0	-12.98136437644214	0	89.06801160295875	0.955152074051582	0	0
2.2	6.240146697131806	-1.213232832718328	-112.9946666450868	0	0.9399999998679526	0	45.13568127335822	-10.06023760543475	0	60.01263198852465	1.047418020987427	-5.015764594428861	0	0	45.13568127335822	-10.06023760543475	0	60.01263198852465	1.047418020987427	-5.015764594428861	0	0	8.974675613241658	-3.892441890476753	17.17804968971166	74.49786895478032	12.98058482740765	29.98346774110568	22.80068211035753	0.9549562748802715	0	0	0	-12.98166889577426	0	89.06820261699869	0.9549562748802715	0	0
2.21	6.297466852591973	-1.106714354896841	-113.3602934387784	0	0.9399999998679526	0	45.13522338273074	-10.05974435746023	0	60.01259019260424	1.047417291511002	-5.01560947174692	0	0	45.13522338273074	-10.05974435746023	0	60.01259019260424	1.047417291511002	-5.01560947174692	0	0	9.226779279513032	-3.813609396447791	17.54029859613293	74.9419765852642	14.10922529533939	29.99717944552853	23.6839454868084	0.9524909256148125	0	0	0	-12.98580233704528	0	89.07060771980963	0.9524909256148125	0	0
2.22	6.360644319019486	-1.080523708935297	-113.7959763205246	0	0.9399999998679526	0	45.13518382937652	-10.05968314735664	0	60.01258734011301	1.047417241725638	-5.015588600663403	0	0	45.13518382937652	-10.05968314735664	0	60.01258734011301	1.047417241725638	-5.015588600663403	0	0	9.495449585409915	-3.721590996112444	18.31066133656011	75.80534993689366	15.215498250152	29.88241429612264	22.96026195585638	0.9522972011223837	0	0	0	-12.98610362527662	0	89.07079670987677	0.9522972011223837	0	0
2.23	6.385048895814801	-1.028696630587716	-114.1607988425036	0	0.9399999998679526	0	45.13513934727005	-10.05961438224966	0	60.01258413132496	1.047417185721722	-5.015565162725627	0	0	45.13513934727005	-10.05961438224966	0	60.01258413132496	1.047417185721722	-5.015565162725627	0	0	9.63413468076738	-3.629681835094031	19.36539505091927	76.90870682965505	15.61215614811287	29.63352161011531	21.81098977710008	0.9520792989152268	0	0	0	-12.98644255716704	0	89.0710092867813	0.9520792989152268	0	0
2.24	6.28859491029207	-0.9656179229772515	-113.7504022016207	0	0.9399999998679526	0	45.13509068778528	-10.05953933796033	0	60.01258061661075	1.047417124378386	-5.015539601384799	0	0	45.13509068778528	-10.05953933796033	0	60.01258061661075	1.047417124378386	-5.015539601384799	0	0	9.431548642923536	-3.621718097258818	19.6750704980529	78.43315400783867	15.98210678282659	29.28861089702909	20.20444673697424	0.9518407951840362	0	0	0	-12.98681370697259	0	89.07124196173284	0.9518407951840362	0	0
2.25	6.23184484230649	-0.7874576859571343	-112.9968121613752	0	0.9399999998679526	0	45.13503544434601	-10.05945407416795	0	60.01257663124505	1.047417054820633	-5.015510560682677	0	0	45.13503544434601	-10.05945407416795	0	60.01257663124505	1.047417054820633	-5.015510560682677	0	0	9.702083731102517	-3.604844655802811	19.59528328939935	79.16142969422653	16.41627685423224	29.11411325933028	19.47113387387797	0.9515701273062993	0	0	0	-12.98723475744385	0	89.0715060147714	0.9515701273062993	0	0
2.26	6.147109943131946	-0.5887915721624041	-112.2688683260217	0	0.9399999998679526	0	45.13498970144656	-10.05938369156128	0	60.01257332552633	1.047416997124957	-5.015486608574076	0	0	45.13498970144656	-10.05938369156128	0	60.01257332552633	1.047416997124957	-5.015486608574076	0	0	10.00419669609049	-3.529788283737184	19.54938671981576	80.06960811975978	16.73434750778785	29.09660540941182	17.88161125005749	0.9513458375892144	0	0	0	-12.98758387629363	0	89.07172482308629	0.9513458375892144	0	0
2.27	6.221113469922312	-0.4165104870995183	-112.4345906886807	0	0.9399999998679526	0	45.13493460526357	-10.05929888962578	0	60.01256934759112	1.04741692769689	-5.015457753852207	0	0	45.13493460526357	-10.05929888962578	0	60.01256934759112	1.04741692769689	-5.015457753852207	0	0	10.54604125073325	-3.385649538967491	19.92753418179512	80.89261641789467	17.65325562795639	29.07862192483957	16.15517496914339	0.9510757616225732	0	0	0	-12.9880041516934	0	89.07198829868236	0.9510757616225732	0	0
